<?xml version="1.0" encoding="UTF-8"?>
<svg id="b" data-name="Layer 2" xmlns="http://www.w3.org/2000/svg" width="557.74" height="363" viewBox="0 0 557.74 363">
  <g id="c" data-name="Слой 1">
    <g>
      <rect width="557.74" height="363" rx="19.71" ry="19.71"/>
      <rect y="38" width="557.74" height="85" style="fill: #fbb03b;"/>
      <rect x="40.11" y="164" width="313" height="54" style="fill: #ccc;"/>
      <g>
        <path d="M299.06,200.62c-1.05-1.09-1.58-2.6-1.58-4.55v-9.89c0-1.95,.53-3.47,1.59-4.56,1.06-1.08,2.6-1.62,4.62-1.62s3.58,.54,4.63,1.62c1.05,1.08,1.58,2.6,1.58,4.56v9.89c0,1.96-.53,3.47-1.59,4.56-1.06,1.08-2.6,1.62-4.62,1.62s-3.58-.54-4.63-1.63Zm7.02-2.12c.51-.56,.77-1.37,.77-2.43v-9.89c0-1.06-.25-1.87-.76-2.43-.51-.56-1.31-.85-2.39-.85s-1.89,.28-2.39,.85c-.51,.56-.76,1.37-.76,2.43v9.89c0,1.06,.26,1.87,.77,2.43,.51,.56,1.31,.85,2.39,.85s1.87-.28,2.39-.85Z"/>
        <path d="M315.37,200.62c-1.05-1.09-1.58-2.6-1.58-4.55v-9.89c0-1.95,.53-3.47,1.59-4.56,1.06-1.08,2.6-1.62,4.62-1.62s3.58,.54,4.63,1.62c1.05,1.08,1.58,2.6,1.58,4.56v9.89c0,1.96-.53,3.47-1.59,4.56-1.06,1.08-2.6,1.62-4.62,1.62s-3.58-.54-4.63-1.63Zm7.02-2.12c.51-.56,.77-1.37,.77-2.43v-9.89c0-1.06-.25-1.87-.76-2.43-.51-.56-1.31-.85-2.39-.85s-1.88,.28-2.39,.85c-.51,.56-.76,1.37-.76,2.43v9.89c0,1.06,.26,1.87,.77,2.43,.51,.56,1.31,.85,2.39,.85s1.87-.28,2.39-.85Z"/>
        <path d="M331.68,200.62c-1.05-1.09-1.58-2.6-1.58-4.55v-9.89c0-1.95,.53-3.47,1.59-4.56,1.06-1.08,2.6-1.62,4.62-1.62s3.58,.54,4.63,1.62c1.05,1.08,1.58,2.6,1.58,4.56v9.89c0,1.96-.53,3.47-1.59,4.56-1.06,1.08-2.6,1.62-4.62,1.62s-3.58-.54-4.63-1.63Zm7.02-2.12c.51-.56,.77-1.37,.77-2.43v-9.89c0-1.06-.25-1.87-.76-2.43-.51-.56-1.31-.85-2.39-.85s-1.88,.28-2.39,.85c-.51,.56-.76,1.37-.76,2.43v9.89c0,1.06,.26,1.87,.77,2.43,.51,.56,1.31,.85,2.39,.85s1.87-.28,2.39-.85Z"/>
      </g>
      <path d="M425.56,0l-26.29,38-58.81,85-28.36,41-37.36,54-100.32,145H19.71c-10.89,0-19.71-8.82-19.71-19.71v-67.4l40.11-57.98,37.3-53.91,28.36-41,58.81-85L190.87,0h234.69Z" style="fill: #fff; opacity: .17;"/>
      <polygon points="535 0 508.71 38 449.9 123 283.86 363 214.55 363 314.87 218 352.22 164 380.59 123 439.4 38 465.69 0 535 0" style="fill: #fff; opacity: .17;"/>
    </g>
  </g>
</svg>