<?xml version="1.0" encoding="UTF-8"?>
<svg id="b" data-name="Layer 2" xmlns="http://www.w3.org/2000/svg" width="557.74" height="363" viewBox="0 0 557.74 363">
  <g id="c" data-name="Слой 1">
    <g>
      <g>
        <rect width="557.74" height="363" rx="19.71" ry="19.71"/>
        <g>
          <path d="M511.11,112.12v38.77c0,5.58-4.52,10.1-10.1,10.1h-61.01c-4.2,0-7.8-2.57-9.33-6.21-.5-1.2-.77-2.51-.77-3.89v-38.77c0-5.58,4.52-10.1,10.1-10.1h61.01c.85,0,1.67,.11,2.46,.3,4.39,1.1,7.64,5.07,7.64,9.8Z" style="fill: #fbb03b;"/>
          <path d="M493.94,102.01l-31.75,41.18-.48,.62-13.25,17.18h-8.46c-4.2,0-7.8-2.57-9.33-6.21l9.43-12.24,.38-.48,16.09-20.87,.38-.49,4.51-5.84,.48-.62,7.39-9.58,1.43-1.85,.61-.79h22.58Z" style="fill: #fff; opacity: .28;"/>
          <path d="M503.47,102.32l-14.12,18.31-.37,.48-7.36,9.55-.48,.62-17.24,22.36-.31,.4-5.36,6.95h-5.49l9.02-11.69,.48-.62,18.9-24.52,.48-.63,1.87-2.42,.38-.48,14.35-18.61h2.79c.85,0,1.67,.11,2.46,.3Z" style="fill: #fff; opacity: .28;"/>
          <g>
            <path d="M511.11,142.15c-9.85,.05-19.68,.11-29.53,.16h-.24v-.48h.29c9.83-.06,19.66-.12,29.49-.16v.48Z"/>
            <polygon points="429.9 142.6 461.7 142.43 461.94 142.43 461.94 142.18 461.94 141.94 461.7 141.94 429.9 142.12 429.9 142.6"/>
            <polygon points="429.9 121.33 461.51 121.15 461.94 121.15 461.94 120.67 461.51 120.67 429.9 120.85 429.9 121.33"/>
            <path d="M478.77,154.22h-14.2c-1.52,0-2.77-1.24-2.79-2.76l-.09-9.51h.43v.24h.05l.08,9.27c.01,1.26,1.04,2.28,2.3,2.28h14.2c1.27,0,2.3-1.03,2.3-2.3l.02-9.36h.48l-.02,9.36c0,1.53-1.25,2.78-2.79,2.78Z"/>
            <path d="M470.26,102.01v.91c0,.7-.57,1.27-1.27,1.27h-4.79c-.75,0-1.46,.29-2,.83-.54,.54-.83,1.25-.82,2.01l.12,13.63v.48l.19,20.79v.24h.48l-.31-35.15c0-.63,.23-1.22,.68-1.66,.44-.44,1.03-.69,1.65-.69h4.79c.97,0,1.75-.79,1.75-1.75v-.91h-.48Z"/>
            <path d="M511.11,121.11h-27.95c-.85,0-1.54,.69-1.54,1.54v19.49h-.48v-19.49c0-1.12,.91-2.03,2.03-2.03h27.95v.48Z"/>
            <polygon points="471.91 160.99 471.95 154.22 471.95 153.74 471.47 153.74 471.47 154.22 471.43 160.99 471.91 160.99"/>
          </g>
        </g>
        <g>
          <path d="M51.61,77.01c-4.32,0-7.56-3.11-7.56-8.15,0-4.54,2.7-8.23,7.7-8.23,2.16,0,3.64,.49,4.59,1.03l.9-3.06c-1.08-.54-3.15-1.12-5.49-1.12-7.11,0-11.7,4.86-11.7,11.56s4.27,11.12,10.84,11.12c2.93,0,5.22-.72,6.26-1.26l-.68-2.97c-1.12,.49-2.61,1.08-4.86,1.08Z" style="fill: #fbb03b;"/>
          <path d="M71.41,57.44c-2.65,0-5.04,1.84-6.03,4.76h-.18l-.13-4.27h-3.47c.14,2.02,.18,4.23,.18,6.79v14.99h3.92v-11.61c0-.68,.09-1.31,.18-1.85,.54-2.97,2.52-5.08,5.31-5.08,.54,0,.94,.04,1.35,.13v-3.73c-.36-.09-.68-.13-1.13-.13Z" style="fill: #fbb03b;"/>
          <path d="M93.69,67.69c0-4-1.89-10.25-9-10.25-6.35,0-10.22,5.17-10.22,11.74s4.01,10.98,10.71,10.98c3.47,0,5.85-.72,7.25-1.35l-.68-2.84c-1.48,.63-3.19,1.13-6.03,1.13-3.96,0-7.38-2.21-7.47-7.56h15.3c.05-.41,.14-1.04,.14-1.85Zm-15.39-.99c.31-2.74,2.07-6.43,6.07-6.43,4.46,0,5.54,3.91,5.49,6.43h-11.56Z" style="fill: #fbb03b;"/>
          <path d="M117.4,74.08v-26.32h-3.96v13h-.09c-.99-1.75-3.24-3.32-6.57-3.32-5.31,0-9.81,4.45-9.76,11.69,0,6.62,4.05,11.07,9.31,11.07,3.56,0,6.21-1.84,7.43-4.27h.09l.18,3.78h3.55c-.13-1.49-.18-3.69-.18-5.63Zm-3.96-3.51c0,.63-.04,1.17-.18,1.71-.72,2.97-3.15,4.73-5.8,4.73-4.28,0-6.44-3.65-6.44-8.06,0-4.81,2.43-8.41,6.53-8.41,2.97,0,5.13,2.07,5.71,4.59,.14,.49,.18,1.17,.18,1.66v3.78Z" style="fill: #fbb03b;"/>
          <path d="M125.95,49.34c-1.44,0-2.47,1.08-2.47,2.47s.99,2.43,2.38,2.43c1.58,0,2.57-1.08,2.52-2.43,0-1.39-.94-2.47-2.43-2.47Zm-1.98,8.59v21.78h3.96v-21.78h-3.96Z" style="fill: #fbb03b;"/>
          <path d="M139.27,60.94h5.67v-3.01h-5.67v-6.25l-3.87,1.03v5.22h-3.37v3.01h3.37v11.88c0,.84,.04,1.61,.15,2.31,.19,1.44,.63,2.57,1.38,3.36,.95,1.08,2.43,1.67,4.28,1.67,1.53,0,2.74-.23,3.51-.54l-.18-2.97c-.5,.13-1.26,.27-2.3,.27-2.2,0-2.97-1.53-2.97-4.23v-11.75Z" style="fill: #fbb03b;"/>
          <path d="M168.93,77.01c-4.32,0-7.56-3.11-7.56-8.15,0-4.54,2.7-8.23,7.69-8.23,2.16,0,3.65,.49,4.59,1.03l.9-3.06c-1.08-.54-3.15-1.12-5.49-1.12-7.11,0-11.7,4.86-11.7,11.56s4.28,11.12,10.85,11.12c2.92,0,5.22-.72,6.25-1.26l-.67-2.97c-1.13,.49-2.61,1.08-4.86,1.08Z" style="fill: #fbb03b;"/>
          <path d="M194.4,74.49v-8.15c0-4.36-1.62-8.9-8.28-8.9-2.75,0-5.36,.76-7.16,1.93l.9,2.61c1.53-.99,3.65-1.62,5.67-1.62,4.46,0,4.95,3.24,4.95,5.04v.45c-8.41-.05-13.09,2.83-13.09,8.1,0,3.15,2.25,6.25,6.66,6.25,3.1,0,5.44-1.53,6.66-3.24h.13l.32,2.75h3.6c-.27-1.49-.36-3.33-.36-5.22Zm-3.83-2.12c0,.41-.09,.86-.22,1.26-.63,1.85-2.43,3.65-5.27,3.65-2.02,0-3.73-1.22-3.73-3.78,0-4.23,4.9-5,9.22-4.91v3.78Z" style="fill: #fbb03b;"/>
          <path d="M210.42,57.44c-2.66,0-5.04,1.84-6.03,4.76h-.18l-.14-4.27h-3.46c.13,2.02,.18,4.23,.18,6.79v14.99h3.91v-11.61c0-.68,.09-1.31,.18-1.85,.54-2.97,2.52-5.08,5.31-5.08,.54,0,.95,.04,1.35,.13v-3.73c-.36-.09-.67-.13-1.12-.13Z" style="fill: #fbb03b;"/>
          <path d="M233.86,74.08v-26.32h-3.96v13h-.09c-.99-1.75-3.24-3.32-6.57-3.32-5.31,0-9.81,4.45-9.76,11.69,0,6.62,4.05,11.07,9.31,11.07,3.56,0,6.21-1.84,7.43-4.27h.09l.18,3.78h3.55c-.13-1.49-.18-3.69-.18-5.63Zm-3.96-3.51c0,.63-.04,1.17-.18,1.71-.72,2.97-3.15,4.73-5.8,4.73-4.28,0-6.44-3.65-6.44-8.06,0-4.81,2.43-8.41,6.53-8.41,2.97,0,5.13,2.07,5.71,4.59,.14,.49,.18,1.17,.18,1.66v3.78Z" style="fill: #fbb03b;"/>
        </g>
        <g>
          <path d="M60.15,225.63c0,9.28-3.44,14.41-9.49,14.41-5.33,0-8.95-5-9.03-14.03,0-9.16,3.95-14.2,9.49-14.2s9.03,5.12,9.03,13.82Zm-14.83,.42c0,7.1,2.18,11.13,5.54,11.13,3.78,0,5.59-4.41,5.59-11.38s-1.72-11.13-5.54-11.13c-3.23,0-5.59,3.95-5.59,11.38Z" style="fill: #fbb03b;"/>
          <path d="M81.69,225.63c0,9.28-3.44,14.41-9.49,14.41-5.33,0-8.95-5-9.03-14.03,0-9.16,3.95-14.2,9.49-14.2s9.03,5.12,9.03,13.82Zm-14.83,.42c0,7.1,2.18,11.13,5.54,11.13,3.78,0,5.59-4.41,5.59-11.38s-1.72-11.13-5.54-11.13c-3.23,0-5.59,3.95-5.59,11.38Z" style="fill: #fbb03b;"/>
          <path d="M103.24,225.63c0,9.28-3.44,14.41-9.49,14.41-5.33,0-8.95-5-9.03-14.03,0-9.16,3.95-14.2,9.49-14.2s9.03,5.12,9.03,13.82Zm-14.83,.42c0,7.1,2.18,11.13,5.54,11.13,3.78,0,5.59-4.41,5.59-11.38s-1.72-11.13-5.54-11.13c-3.23,0-5.59,3.95-5.59,11.38Z" style="fill: #fbb03b;"/>
          <path d="M124.78,225.63c0,9.28-3.44,14.41-9.49,14.41-5.33,0-8.95-5-9.03-14.03,0-9.16,3.95-14.2,9.49-14.2s9.03,5.12,9.03,13.82Zm-14.83,.42c0,7.1,2.18,11.13,5.54,11.13,3.78,0,5.59-4.41,5.59-11.38s-1.72-11.13-5.54-11.13c-3.23,0-5.59,3.95-5.59,11.38Z" style="fill: #fbb03b;"/>
          <path d="M164.14,225.63c0,9.28-3.44,14.41-9.49,14.41-5.33,0-8.95-5-9.03-14.03,0-9.16,3.95-14.2,9.49-14.2s9.03,5.12,9.03,13.82Zm-14.83,.42c0,7.1,2.18,11.13,5.54,11.13,3.78,0,5.59-4.41,5.59-11.38s-1.72-11.13-5.54-11.13c-3.23,0-5.59,3.95-5.59,11.38Z" style="fill: #fbb03b;"/>
          <path d="M185.68,225.63c0,9.28-3.44,14.41-9.49,14.41-5.33,0-8.95-5-9.03-14.03,0-9.16,3.95-14.2,9.49-14.2s9.03,5.12,9.03,13.82Zm-14.83,.42c0,7.1,2.18,11.13,5.54,11.13,3.78,0,5.59-4.41,5.59-11.38s-1.72-11.13-5.54-11.13c-3.23,0-5.59,3.95-5.59,11.38Z" style="fill: #fbb03b;"/>
          <path d="M207.23,225.63c0,9.28-3.44,14.41-9.49,14.41-5.33,0-8.95-5-9.03-14.03,0-9.16,3.95-14.2,9.49-14.2s9.03,5.12,9.03,13.82Zm-14.83,.42c0,7.1,2.18,11.13,5.54,11.13,3.78,0,5.59-4.41,5.59-11.38s-1.72-11.13-5.54-11.13c-3.23,0-5.59,3.95-5.59,11.38Z" style="fill: #fbb03b;"/>
          <path d="M228.77,225.63c0,9.28-3.44,14.41-9.49,14.41-5.33,0-8.95-5-9.03-14.03,0-9.16,3.95-14.2,9.49-14.2s9.03,5.12,9.03,13.82Zm-14.83,.42c0,7.1,2.18,11.13,5.54,11.13,3.78,0,5.59-4.41,5.59-11.38s-1.72-11.13-5.54-11.13c-3.23,0-5.59,3.95-5.59,11.38Z" style="fill: #fbb03b;"/>
          <path d="M268.13,225.63c0,9.28-3.44,14.41-9.49,14.41-5.33,0-8.95-5-9.03-14.03,0-9.16,3.95-14.2,9.49-14.2s9.03,5.12,9.03,13.82Zm-14.83,.42c0,7.1,2.18,11.13,5.54,11.13,3.78,0,5.59-4.41,5.59-11.38s-1.72-11.13-5.54-11.13c-3.23,0-5.59,3.95-5.59,11.38Z" style="fill: #fbb03b;"/>
          <path d="M289.67,225.63c0,9.28-3.44,14.41-9.49,14.41-5.34,0-8.95-5-9.03-14.03,0-9.16,3.95-14.2,9.49-14.2s9.03,5.12,9.03,13.82Zm-14.83,.42c0,7.1,2.18,11.13,5.54,11.13,3.78,0,5.59-4.41,5.59-11.38s-1.72-11.13-5.54-11.13c-3.23,0-5.59,3.95-5.59,11.38Z" style="fill: #fbb03b;"/>
          <path d="M311.22,225.63c0,9.28-3.45,14.41-9.49,14.41-5.33,0-8.95-5-9.03-14.03,0-9.16,3.95-14.2,9.49-14.2s9.03,5.12,9.03,13.82Zm-14.83,.42c0,7.1,2.18,11.13,5.54,11.13,3.78,0,5.59-4.41,5.59-11.38s-1.72-11.13-5.54-11.13c-3.23,0-5.59,3.95-5.59,11.38Z" style="fill: #fbb03b;"/>
          <path d="M332.76,225.63c0,9.28-3.45,14.41-9.49,14.41-5.33,0-8.95-5-9.03-14.03,0-9.16,3.95-14.2,9.49-14.2s9.03,5.12,9.03,13.82Zm-14.83,.42c0,7.1,2.18,11.13,5.54,11.13,3.78,0,5.59-4.41,5.59-11.38s-1.72-11.13-5.54-11.13c-3.23,0-5.59,3.95-5.59,11.38Z" style="fill: #fbb03b;"/>
          <path d="M372.12,225.63c0,9.28-3.45,14.41-9.49,14.41-5.33,0-8.95-5-9.03-14.03,0-9.16,3.95-14.2,9.49-14.2s9.03,5.12,9.03,13.82Zm-14.83,.42c0,7.1,2.18,11.13,5.54,11.13,3.78,0,5.59-4.41,5.59-11.38s-1.72-11.13-5.54-11.13c-3.23,0-5.59,3.95-5.59,11.38Z" style="fill: #fbb03b;"/>
          <path d="M393.66,225.63c0,9.28-3.45,14.41-9.49,14.41-5.33,0-8.95-5-9.03-14.03,0-9.16,3.95-14.2,9.49-14.2s9.03,5.12,9.03,13.82Zm-14.83,.42c0,7.1,2.18,11.13,5.54,11.13,3.78,0,5.59-4.41,5.59-11.38s-1.72-11.13-5.54-11.13c-3.23,0-5.59,3.95-5.59,11.38Z" style="fill: #fbb03b;"/>
          <path d="M415.21,225.63c0,9.28-3.44,14.41-9.49,14.41-5.33,0-8.95-5-9.03-14.03,0-9.16,3.95-14.2,9.49-14.2s9.03,5.12,9.03,13.82Zm-14.83,.42c0,7.1,2.18,11.13,5.54,11.13,3.78,0,5.59-4.41,5.59-11.38s-1.72-11.13-5.54-11.13c-3.23,0-5.59,3.95-5.59,11.38Z" style="fill: #fbb03b;"/>
          <path d="M436.75,225.63c0,9.28-3.44,14.41-9.49,14.41-5.34,0-8.95-5-9.03-14.03,0-9.16,3.95-14.2,9.49-14.2s9.03,5.12,9.03,13.82Zm-14.83,.42c0,7.1,2.18,11.13,5.54,11.13,3.78,0,5.59-4.41,5.59-11.38s-1.72-11.13-5.54-11.13c-3.23,0-5.59,3.95-5.59,11.38Z" style="fill: #fbb03b;"/>
        </g>
        <g>
          <path d="M370.3,105.33c-8.83,5.64-14.49,15.77-14.33,26.3s6.18,20.46,15.17,25.82c2.09,1.25,.19,4.53-1.91,3.27-10.15-6.05-16.85-17.22-17.05-29.09-.19-11.87,6.27-23.23,16.2-29.57,2.06-1.32,3.97,1.96,1.91,3.27h0Z" style="fill: #fbb03b;"/>
          <path d="M377.53,110.59c-7.16,4.6-11.67,12.81-11.41,21.36,.25,8.29,5.04,15.99,12.1,20.23,2.09,1.25,.19,4.53-1.91,3.27-8.22-4.93-13.68-13.87-13.98-23.5-.3-9.9,5.04-19.33,13.29-24.64,2.06-1.32,3.96,1.96,1.91,3.27h0Z" style="fill: #fbb03b;"/>
          <path d="M384.3,115.65c-11.5,7.46-11.16,24.4,.53,31.48,2.08,1.26,.18,4.54-1.91,3.27-6.56-3.97-10.93-11.13-11.05-18.86-.12-7.74,4.09-15,10.52-19.16,2.05-1.33,3.96,1.95,1.91,3.27h0Z" style="fill: #fbb03b;"/>
          <path d="M391.45,121.21c-7.43,4.92-7.18,15.69,.36,20.35,2.07,1.28,.17,4.56-1.91,3.27-10.03-6.2-10.16-20.42-.36-26.9,2.04-1.35,3.94,1.93,1.91,3.27h0Z" style="fill: #fbb03b;"/>
        </g>
        <path d="M422.22,0L171.08,363H19.71c-10.89,0-19.71-8.82-19.71-19.71v-72.23L135.55,75.13l3.72-5.38L187.53,0h234.69Z" style="fill: #fff; opacity: .17;"/>
        <polygon points="531.66 0 461.08 102.01 448.12 120.75 447.79 121.23 433.35 142.1 433.01 142.58 429.9 147.08 280.52 363 211.21 363 358.28 150.42 358.28 150.41 360.61 147.06 364.39 141.59 367.04 137.75 371.88 130.78 371.88 130.77 384.49 112.54 462.35 0 531.66 0" style="fill: #fff; opacity: .17;"/>
      </g>
      <g>
        <path d="M515.85,291.55c0,14.97-17.63,27.25-40.02,28.4-1.15,.07-2.31,.1-3.48,.1-2.6,0-5.15-.15-7.63-.45-1.92-.21-3.8-.52-5.62-.9-9.02-1.88-16.76-5.65-22.15-10.59-5.1-4.66-8.1-10.38-8.1-16.56,0-15.62,19.19-28.31,42.96-28.49,.18-.01,.36-.01,.54-.01,9.56,0,18.41,2.02,25.59,5.46,1.56,.74,3.04,1.55,4.44,2.43,2.68,1.67,5.04,3.57,7,5.65,4.1,4.35,6.47,9.47,6.47,14.96Z" style="fill: #b3b3b3;"/>
        <path d="M497.94,268.51l-38.84,50.19c-9.02-1.88-16.76-5.65-22.15-10.59l34.86-45.05c.18-.01,.36-.01,.54-.01,9.56,0,18.41,2.02,25.59,5.46Z" style="fill: #fff; opacity: .34;"/>
        <path d="M509.38,276.59l-33.55,43.36c-1.15,.07-2.31,.1-3.48,.1-2.6,0-5.15-.15-7.63-.45l37.66-48.66c2.68,1.67,5.04,3.57,7,5.65Z" style="fill: #fff; opacity: .34;"/>
      </g>
    </g>
  </g>
</svg>