<?xml version="1.0" encoding="UTF-8"?>
<svg xmlns="http://www.w3.org/2000/svg" width="176.73" height="360.72" xmlns:xlink="http://www.w3.org/1999/xlink" viewBox="0 0 176.73 360.72">
  <defs>
    <linearGradient id="d" x1="23.65" y1="-34.03" x2="70.65" y2="136.3" gradientTransform="matrix(1, 0, 0, 1, 0, 0)" gradientUnits="userSpaceOnUse">
      <stop offset="0" stop-color="#6f6e6e"/>
      <stop offset="1" stop-color="#000"/>
    </linearGradient>
    <linearGradient id="e" x1="-6.55" y1="15.96" x2="183.28" y2="344.76" gradientTransform="matrix(1, 0, 0, 1, 0, 0)" gradientUnits="userSpaceOnUse">
      <stop offset="0" stop-color="#bfc1bf"/>
      <stop offset=".04" stop-color="#bcbebc"/>
      <stop offset=".06" stop-color="#b4b6b4"/>
      <stop offset=".08" stop-color="#a6a8a6"/>
      <stop offset=".1" stop-color="#939493"/>
      <stop offset=".11" stop-color="#797b79"/>
      <stop offset=".12" stop-color="#5a5b5a"/>
      <stop offset=".14" stop-color="#353535"/>
      <stop offset=".15" stop-color="#0b0b0b"/>
      <stop offset=".15" stop-color="#000"/>
      <stop offset=".21" stop-color="#010101"/>
      <stop offset=".23" stop-color="#080808"/>
      <stop offset=".24" stop-color="#141414"/>
      <stop offset=".25" stop-color="#252525"/>
      <stop offset=".26" stop-color="#3a3b3a"/>
      <stop offset=".27" stop-color="#555655"/>
      <stop offset=".28" stop-color="#767776"/>
      <stop offset=".29" stop-color="#9a9b9a"/>
      <stop offset=".29" stop-color="#bfc1bf"/>
      <stop offset=".55" stop-color="#000"/>
      <stop offset=".61" stop-color="#010101"/>
      <stop offset=".63" stop-color="#080808"/>
      <stop offset=".64" stop-color="#141414"/>
      <stop offset=".65" stop-color="#252525"/>
      <stop offset=".67" stop-color="#3a3b3a"/>
      <stop offset=".67" stop-color="#555655"/>
      <stop offset=".68" stop-color="#767776"/>
      <stop offset=".69" stop-color="#9a9b9a"/>
      <stop offset=".7" stop-color="#bfc1bf"/>
      <stop offset=".87" stop-color="#000"/>
      <stop offset=".89" stop-color="#030403"/>
      <stop offset=".91" stop-color="#0f100f"/>
      <stop offset=".93" stop-color="#232423"/>
      <stop offset=".95" stop-color="#3f403f"/>
      <stop offset=".97" stop-color="#646564"/>
      <stop offset=".98" stop-color="#8f918f"/>
      <stop offset="1" stop-color="#bfc1bf"/>
    </linearGradient>
    <linearGradient id="f" x1="35.8" y1="31.29" x2="34.06" y2="29.55" xlink:href="#d"/>
    <linearGradient id="g" x1="35.8" y1="65.23" x2="34.06" y2="63.49" xlink:href="#d"/>
    <linearGradient id="h" x1="21.69" y1="1.11" x2="36.43" y2="54.54" xlink:href="#d"/>
    <linearGradient id="i" x1="31.41" y1="50.32" x2="35.01" y2="44.08" gradientTransform="matrix(1, 0, 0, 1, 0, 0)" gradientUnits="userSpaceOnUse">
      <stop offset="0" stop-color="#ccc6b3"/>
      <stop offset=".47" stop-color="#e9e5d9"/>
      <stop offset="1" stop-color="#dbd2ab"/>
    </linearGradient>
    <linearGradient id="j" x1="31.41" y1="41.67" x2="35.02" y2="47.92" gradientTransform="matrix(1, 0, 0, 1, 0, 0)" gradientUnits="userSpaceOnUse">
      <stop offset="0" stop-color="#9d9374"/>
      <stop offset=".56" stop-color="#d8d0bc"/>
      <stop offset=".85" stop-color="#d2c58a"/>
    </linearGradient>
    <linearGradient id="k" x1="18.95" y1="20.71" x2="48.12" y2="71.23" gradientTransform="matrix(1, 0, 0, 1, 0, 0)" gradientUnits="userSpaceOnUse">
      <stop offset="0" stop-color="#bfc1bf"/>
      <stop offset=".09" stop-color="#636463"/>
      <stop offset=".17" stop-color="#1c1c1c"/>
      <stop offset=".2" stop-color="#000"/>
      <stop offset=".83" stop-color="#000"/>
      <stop offset=".87" stop-color="#000"/>
      <stop offset="1" stop-color="#676867"/>
    </linearGradient>
    <linearGradient id="l" x1="78.13" y1="68.07" x2="104.8" y2="146.07" xlink:href="#d"/>
  </defs>
  <g style="isolation: isolate;">
    <g id="b" data-name="Layer 2">
      <g id="c" data-name="OBJECTS">
        <g>
          <path d="M176.73,109.71v24.83c0,.55-.45,1-1,1h-.92v-26.83h.92c.55,0,1,.45,1,1Z" style="fill: #151616;"/>
          <path d="M176.73,76.29v24.83c0,.55-.45,1-1,1h-.92v-26.83h.92c.55,0,1,.45,1,1Z" style="fill: #151616;"/>
          <path d="M176.73,52.34v6.42c0,.55-.45,1-1,1h-.92v-8.42h.92c.55,0,1,.45,1,1Z" style="fill: #151616;"/>
          <path d="M171.25,21.57V339.15c0,9.64-7.87,17.45-17.58,17.45H23.06c-9.71,0-17.59-7.81-17.59-17.45V21.57C5.47,11.93,13.35,4.12,23.06,4.12H153.67c9.71,0,17.58,7.81,17.58,17.45ZM46.63,62.23V29.71c0-3.61-1.47-6.89-3.84-9.26s-5.64-3.83-9.26-3.83c-7.23,0-13.09,5.86-13.09,13.09V62.23c0,7.23,5.86,13.09,13.09,13.09s13.1-5.86,13.1-13.09Z" style="fill: #151616;"/>
          <path d="M174.81,135.54v203.36c0,12.05-9.77,21.82-21.82,21.82H23.74c-12.05,0-21.82-9.77-21.82-21.82V21.82C1.92,9.77,11.69,0,23.74,0H152.99c12.05,0,21.82,9.77,21.82,21.82v113.72Zm-3.56,203.61V21.57c0-9.64-7.87-17.45-17.58-17.45H23.06C13.35,4.12,5.47,11.93,5.47,21.57V339.15c0,9.64,7.88,17.45,17.59,17.45H153.67c9.71,0,17.58-7.81,17.58-17.45Z" style="fill: #151616;"/>
          <path d="M1.92,84.59v26.83h-.92c-.55,0-1-.45-1-1v-24.83c0-.55,.45-1,1-1h.92Z" style="fill: #151616;"/>
          <path d="M113.64,4.12H23.06C13.35,4.12,5.47,11.93,5.47,21.57V188.08L113.64,4.12ZM20.44,29.71c0-7.23,5.86-13.09,13.09-13.09,3.62,0,6.89,1.46,9.26,3.83s3.84,5.65,3.84,9.26V62.23c0,7.23-5.87,13.09-13.1,13.09s-13.09-5.86-13.09-13.09V29.71Z" style="fill: url(#d); mix-blend-mode: screen;"/>
          <path d="M152.85,359.1H23.88c-11.49,0-20.83-9.34-20.83-20.83V22.45C3.05,10.96,12.39,1.62,23.88,1.62H152.85c11.49,0,20.83,9.34,20.83,20.83V338.27c0,11.49-9.34,20.83-20.83,20.83ZM23.88,2.62C12.94,2.62,4.05,11.51,4.05,22.45V338.27c0,10.93,8.9,19.83,19.83,19.83H152.85c10.93,0,19.83-8.9,19.83-19.83V22.45c0-10.93-8.9-19.83-19.83-19.83H23.88Z" style="fill: url(#e);"/>
          <g>
            <path d="M46.63,29.71V62.23c0,7.23-5.87,13.09-13.1,13.09s-13.09-5.86-13.09-13.09V29.71c0-7.23,5.86-13.09,13.09-13.09,3.62,0,6.89,1.46,9.26,3.83s3.84,5.65,3.84,9.26Z" style="fill: #151616;"/>
            <path d="M33.53,75.82c-7.49,0-13.59-6.1-13.59-13.59V29.71c0-7.49,6.1-13.59,13.59-13.59,3.63,0,7.05,1.41,9.61,3.98,2.57,2.57,3.99,5.98,3.99,9.61V62.23c0,7.49-6.1,13.59-13.6,13.59Zm0-58.7c-6.94,0-12.59,5.65-12.59,12.59V62.23c0,6.94,5.65,12.59,12.59,12.59s12.6-5.65,12.6-12.59V29.71c0-3.36-1.31-6.52-3.69-8.91-2.38-2.38-5.54-3.68-8.91-3.68Z" style="fill: #525155;"/>
          </g>
          <path d="M33.53,19.12c-2.93,0-5.56,1.18-7.49,3.1-1.92,1.92-3.1,4.56-3.1,7.49V62.23c0,2.93,1.18,5.56,3.1,7.49,1.92,1.92,4.56,3.1,7.49,3.1,2.93,0,5.57-1.18,7.49-3.1,1.92-1.92,3.1-4.56,3.11-7.49V29.71c0-2.92-1.19-5.57-3.11-7.49-1.92-1.92-4.55-3.1-7.49-3.1Z" style="fill: #151616;"/>
          <g>
            <g>
              <path d="M33.53,21.61c4.1,0,7.42,3.32,7.42,7.42s-3.32,7.41-7.42,7.41-7.41-3.32-7.41-7.41,3.32-7.42,7.41-7.42Z" style="fill: #001921;"/>
              <path d="M33.53,36.69c-4.22,0-7.66-3.43-7.66-7.66s3.43-7.67,7.66-7.67,7.67,3.44,7.67,7.67-3.44,7.66-7.67,7.66Zm0-14.83c-3.95,0-7.16,3.22-7.16,7.17s3.21,7.16,7.16,7.16,7.17-3.21,7.17-7.16-3.22-7.17-7.17-7.17Z" style="fill: #152425;"/>
            </g>
            <g>
              <path d="M33.53,25.19c2.12,0,3.84,1.72,3.84,3.84s-1.72,3.83-3.84,3.83-3.83-1.72-3.83-3.83,1.72-3.84,3.83-3.84Z" style="fill: #151616;"/>
              <path d="M33.53,33.36c-2.39,0-4.33-1.94-4.33-4.33s1.94-4.34,4.33-4.34,4.34,1.94,4.34,4.34-1.94,4.33-4.34,4.33Zm0-7.66c-1.83,0-3.33,1.5-3.33,3.34s1.49,3.33,3.33,3.33,3.34-1.49,3.34-3.33-1.5-3.34-3.34-3.34Z" style="fill: #244048;"/>
            </g>
            <path d="M34.55,28.59c.8,0,1.46,.65,1.46,1.46s-.65,1.45-1.46,1.45-1.45-.65-1.45-1.45,.65-1.46,1.45-1.46Z" style="fill: #244048;"/>
            <path d="M34.84,29.53c.44,0,.8,.36,.8,.8s-.36,.8-.8,.8-.8-.36-.8-.8,.36-.8,.8-.8Z" style="fill: url(#f); mix-blend-mode: screen;"/>
          </g>
          <g>
            <g>
              <path d="M33.53,55.55c4.1,0,7.42,3.32,7.42,7.42s-3.32,7.41-7.42,7.41-7.41-3.32-7.41-7.41,3.32-7.42,7.41-7.42Z" style="fill: #001921;"/>
              <path d="M33.53,70.63c-4.22,0-7.66-3.43-7.66-7.66s3.43-7.67,7.66-7.67,7.67,3.44,7.67,7.67-3.44,7.66-7.67,7.66Zm0-14.83c-3.95,0-7.16,3.22-7.16,7.17s3.21,7.16,7.16,7.16,7.17-3.21,7.17-7.16-3.22-7.17-7.17-7.17Z" style="fill: #152425;"/>
            </g>
            <g>
              <path d="M33.53,59.13c2.12,0,3.84,1.72,3.84,3.84s-1.72,3.83-3.84,3.83-3.83-1.72-3.83-3.83,1.72-3.84,3.83-3.84Z" style="fill: #151616;"/>
              <path d="M33.53,67.3c-2.39,0-4.33-1.94-4.33-4.33s1.94-4.34,4.33-4.34,4.34,1.94,4.34,4.34-1.94,4.33-4.34,4.33Zm0-7.66c-1.83,0-3.33,1.5-3.33,3.34s1.49,3.33,3.33,3.33,3.34-1.49,3.34-3.33-1.5-3.34-3.34-3.34Z" style="fill: #244048;"/>
            </g>
            <path d="M34.55,62.53c.8,0,1.46,.65,1.46,1.46s-.65,1.45-1.46,1.45-1.45-.65-1.45-1.45,.65-1.46,1.45-1.46Z" style="fill: #244048;"/>
            <path d="M34.84,63.47c.44,0,.8,.36,.8,.8s-.36,.8-.8,.8-.8-.36-.8-.8,.36-.8,.8-.8Z" style="fill: url(#g); mix-blend-mode: screen;"/>
          </g>
          <path d="M41.02,22.22c-1.92-1.92-4.55-3.1-7.49-3.1-2.93,0-5.56,1.18-7.49,3.1-1.92,1.92-3.1,4.56-3.1,7.49v29.22L42.96,24.89c-.51-.99-1.16-1.89-1.94-2.67Z" style="fill: url(#h); mix-blend-mode: screen;"/>
          <g>
            <path d="M28.73,46c0,2.65,2.15,4.8,4.8,4.8s4.81-2.15,4.81-4.8h-9.6Z" style="fill: url(#i);"/>
            <path d="M33.53,41.19c-2.65,0-4.8,2.15-4.8,4.81h9.6c0-2.66-2.15-4.81-4.81-4.81Z" style="fill: url(#j);"/>
          </g>
          <path d="M38.27,43.67h-.69v-.73h.26c-.06-.09-.14-.17-.21-.25h-.06v-.07c-.08-.1-.16-.21-.25-.3v.37h-.73v-.73h.32c-.1-.08-.2-.17-.3-.25h-.02v-.02c-.08-.06-.16-.11-.25-.17v.18h-.73v-.58c-.08-.03-.17-.05-.25-.08v.66h-.73v-.73h.51c-.43-.14-.87-.23-1.34-.25h-.15s-.09-.03-.13-.03c-.04,0-.08,.01-.12,.01v.02h-.15c-.47,.02-.91,.11-1.34,.25h.51v.73h-.73v-.66c-.08,.03-.17,.05-.25,.08v.58h-.73v-.18c-.08,.05-.17,.11-.25,.17v.02h-.02c-.11,.08-.2,.17-.3,.25h.32v.73h-.73v-.37c-.09,.09-.17,.2-.25,.3v.07h-.06c-.07,.08-.14,.16-.21,.25h.26v.73h-.69c-.12,.24-.21,.49-.29,.75v.23h-.07c-.02,.08-.06,.16-.08,.25h.15v.73h-.23c0,.08-.02,.16-.03,.25h.25v.73h-.2c0,.08,.01,.17,.03,.25h.18v.72c.07,.23,.15,.45,.25,.67v-.4h.73v.73h-.55c.05,.08,.08,.17,.14,.25h.42v.55c.12,.15,.24,.3,.38,.43h.6v.5c.08,.06,.17,.11,.25,.17v-.66h.73v.73h-.6c.15,.09,.3,.18,.46,.25h.14v.08c.08,.03,.17,.05,.25,.08v-.16h.73v.36h.25v-.36h.73v.36h.25v-.36h.73v.36h.25v-.36h.73v.16c.08-.03,.17-.05,.25-.08v-.08h.14c.16-.07,.31-.16,.46-.25h-.6v-.73h.73v.66c.08-.05,.17-.11,.25-.17v-.49h.6c.14-.13,.26-.28,.38-.43v-.55h.42c.05-.08,.09-.17,.14-.25h-.55v-.73h.73v.4c.1-.21,.18-.44,.25-.67v-.72h.18c.01-.08,.02-.17,.03-.25h-.2v-.73h.25c0-.09-.02-.17-.03-.25h-.23v-.73h.15c-.02-.09-.06-.17-.08-.25h-.07v-.23c-.08-.26-.18-.51-.29-.75Zm-8.78,3.92h-.73v-.73h.73v.73Zm0-.98h-.73v-.73h.73v.73Zm0-.98h-.73v-.73h.73v.73Zm0-.98h-.73v-.73h.73v.73Zm.98,4.9h-.73v-.73h.73v.73Zm0-.98h-.73v-.73h.73v.73Zm0-.98h-.73v-.73h.73v.73Zm0-.98h-.73v-.73h.73v.73Zm0-.98h-.73v-.73h.73v.73Zm0-.98h-.73v-.73h.73v.73Zm0-.98h-.73v-.73h.73v.73Zm.98,5.88h-.73v-.73h.73v.73Zm0-.98h-.73v-.73h.73v.73Zm0-.98h-.73v-.73h.73v.73Zm0-.98h-.73v-.73h.73v.73Zm0-.98h-.73v-.73h.73v.73Zm0-.98h-.73v-.73h.73v.73Zm0-.98h-.73v-.73h.73v.73Zm0-.98h-.73v-.73h.73v.73Zm.98,7.85h-.73v-.73h.73v.73Zm0-.98h-.73v-.73h.73v.73Zm0-.98h-.73v-.73h.73v.73Zm0-.98h-.73v-.73h.73v.73Zm0-.98h-.73v-.73h.73v.73Zm0-.98h-.73v-.73h.73v.73Zm0-.98h-.73v-.73h.73v.73Zm0-.98h-.73v-.73h.73v.73Zm0-.98h-.73v-.73h.73v.73Zm.98,7.85h-.73v-.73h.73v.73Zm0-.98h-.73v-.73h.73v.73Zm0-.98h-.73v-.73h.73v.73Zm0-.98h-.73v-.73h.73v.73Zm0-.98h-.73v-.73h.73v.73Zm0-.98h-.73v-.73h.73v.73Zm0-.98h-.73v-.73h.73v.73Zm0-.98h-.73v-.73h.73v.73Zm0-.98h-.73v-.73h.73v.73Zm0-.98h-.73v-.73h.73v.73Zm.98,8.83h-.73v-.73h.73v.73Zm0-.98h-.73v-.73h.73v.73Zm0-.98h-.73v-.73h.73v.73Zm0-.98h-.73v-.73h.73v.73Zm0-.98h-.73v-.73h.73v.73Zm0-.98h-.73v-.73h.73v.73Zm0-.98h-.73v-.73h.73v.73Zm0-.98h-.73v-.73h.73v.73Zm0-.98h-.73v-.73h.73v.73Zm0-.98h-.73v-.73h.73v.73Zm.98,8.83h-.73v-.73h.73v.73Zm0-.98h-.73v-.73h.73v.73Zm0-.98h-.73v-.73h.73v.73Zm0-.98h-.73v-.73h.73v.73Zm0-.98h-.73v-.73h.73v.73Zm0-.98h-.73v-.73h.73v.73Zm0-.98h-.73v-.73h.73v.73Zm0-.98h-.73v-.73h.73v.73Zm0-.98h-.73v-.73h.73v.73Zm.98,6.86h-.73v-.73h.73v.73Zm0-.98h-.73v-.73h.73v.73Zm0-.98h-.73v-.73h.73v.73Zm0-.98h-.73v-.73h.73v.73Zm0-.98h-.73v-.73h.73v.73Zm0-.98h-.73v-.73h.73v.73Zm0-.98h-.73v-.73h.73v.73Zm0-.98h-.73v-.73h.73v.73Zm.98,6.86h-.73v-.73h.73v.73Zm0-.98h-.73v-.73h.73v.73Zm0-.98h-.73v-.73h.73v.73Zm0-.98h-.73v-.73h.73v.73Zm0-.98h-.73v-.73h.73v.73Zm0-.98h-.73v-.73h.73v.73Zm0-.98h-.73v-.73h.73v.73Zm.98,3.92h-.73v-.73h.73v.73Zm0-.98h-.73v-.73h.73v.73Zm0-.98h-.73v-.73h.73v.73Zm0-.98h-.73v-.73h.73v.73Z" style="fill: #ddd9d3; mix-blend-mode: multiply;"/>
          <path d="M33.53,51.79c-3.19,0-5.79-2.6-5.79-5.79s2.6-5.8,5.79-5.8,5.8,2.6,5.8,5.8-2.6,5.79-5.8,5.79Zm0-10.59c-2.64,0-4.79,2.15-4.79,4.8s2.15,4.79,4.79,4.79,4.8-2.15,4.8-4.79-2.15-4.8-4.8-4.8Z" style="fill: #2f3839;"/>
          <g style="mix-blend-mode: multiply;">
            <path d="M33.53,51.04c-2.78,0-5.04-2.26-5.04-5.04s2.26-5.05,5.04-5.05,5.05,2.27,5.05,5.05-2.27,5.04-5.05,5.04Zm0-9.59c-2.5,0-4.54,2.04-4.54,4.55s2.04,4.54,4.54,4.54,4.55-2.04,4.55-4.54-2.04-4.55-4.55-4.55Z" style="fill: #2f3839;"/>
          </g>
          <g style="mix-blend-mode: screen;">
            <path d="M33.53,77.32c-8.32,0-15.09-6.77-15.09-15.09V29.71c0-8.32,6.77-15.09,15.09-15.09h0c4.04,0,7.83,1.57,10.67,4.42,2.85,2.85,4.43,6.64,4.43,10.67V62.23c0,8.32-6.78,15.09-15.1,15.09Zm0-61.7h0c-7.77,0-14.09,6.32-14.09,14.09V62.23c0,7.77,6.32,14.09,14.09,14.09,7.77,0,14.1-6.32,14.1-14.09V29.71c0-3.76-1.47-7.3-4.13-9.97h0c-2.66-2.66-6.19-4.12-9.96-4.12Z" style="fill: url(#k);"/>
          </g>
          <path d="M97.84,81.59h-18.96l-9.48,16.42,9.48,16.42h18.96l9.48-16.42-9.48-16.42Zm-.86,11.72h-17.24l-4.79,8.31-2.09-3.61,7.75-13.42h15.5l7.75,13.42-2.09,3.61-4.79-8.31Z" style="fill: url(#l);"/>
          <g>
            <path d="M64.22,285.47h-2.42v-.87h5.89v.87h-2.43v7.08h-1.04v-7.08Z" style="fill: #454545;"/>
            <path d="M68.45,284.17h1.04v3.56h.02c.17-.29,.42-.55,.74-.73,.31-.18,.67-.29,1.06-.29,.77,0,1.99,.47,1.99,2.44v3.4h-1.04v-3.28c0-.92-.34-1.7-1.32-1.7-.67,0-1.2,.47-1.39,1.04-.06,.14-.07,.29-.07,.5v3.44h-1.04v-8.37Z" style="fill: #454545;"/>
            <path d="M75.57,289.88c.02,1.4,.92,1.98,1.96,1.98,.74,0,1.19-.13,1.58-.29l.18,.74c-.37,.17-.99,.35-1.9,.35-1.76,0-2.81-1.16-2.81-2.88s1.01-3.08,2.68-3.08c1.86,0,2.36,1.64,2.36,2.69,0,.21-.02,.38-.04,.48h-4.01Zm3.04-.74c.01-.66-.27-1.69-1.44-1.69-1.05,0-1.51,.97-1.59,1.69h3.03Z" style="fill: #454545;"/>
            <path d="M83.44,284.69c.5-.08,1.14-.15,1.97-.15,1.01,0,1.76,.24,2.23,.66,.44,.38,.7,.96,.7,1.66s-.21,1.29-.61,1.7c-.54,.58-1.43,.87-2.43,.87-.31,0-.59-.01-.83-.07v3.18h-1.03v-7.86Zm1.03,3.83c.22,.06,.51,.08,.85,.08,1.24,0,1.99-.6,1.99-1.7s-.74-1.56-1.88-1.56c-.45,0-.79,.04-.97,.08v3.09Z" style="fill: #454545;"/>
            <path d="M89.62,284.17h1.04v3.56h.02c.17-.29,.42-.55,.74-.73,.31-.18,.67-.29,1.06-.29,.77,0,1.99,.47,1.99,2.44v3.4h-1.04v-3.28c0-.92-.34-1.7-1.32-1.7-.67,0-1.2,.47-1.39,1.04-.06,.14-.07,.29-.07,.5v3.44h-1.04v-8.37Z" style="fill: #454545;"/>
            <path d="M101.33,289.64c0,2.11-1.46,3.03-2.84,3.03-1.54,0-2.74-1.13-2.74-2.94,0-1.91,1.25-3.03,2.83-3.03s2.75,1.19,2.75,2.94Zm-4.53,.06c0,1.25,.72,2.19,1.73,2.19s1.73-.93,1.73-2.22c0-.97-.48-2.19-1.71-2.19s-1.76,1.13-1.76,2.22Z" style="fill: #454545;"/>
            <path d="M102.63,288.38c0-.59-.01-1.07-.05-1.54h.92l.06,.94h.02c.28-.54,.94-1.07,1.89-1.07,.79,0,2.02,.47,2.02,2.43v3.41h-1.04v-3.29c0-.92-.34-1.69-1.32-1.69-.68,0-1.22,.48-1.39,1.06-.05,.13-.07,.31-.07,.48v3.43h-1.04v-4.16Z" style="fill: #454545;"/>
            <path d="M109.75,289.88c.02,1.4,.92,1.98,1.96,1.98,.74,0,1.19-.13,1.58-.29l.18,.74c-.37,.17-.99,.35-1.9,.35-1.76,0-2.81-1.16-2.81-2.88s1.01-3.08,2.68-3.08c1.86,0,2.36,1.64,2.36,2.69,0,.21-.02,.38-.04,.48h-4.01Zm3.04-.74c.01-.66-.27-1.69-1.44-1.69-1.05,0-1.51,.97-1.59,1.69h3.03Z" style="fill: #454545;"/>
          </g>
        </g>
      </g>
    </g>
  </g>
</svg>